<svg fill="rgb(238, 241, 254)" version="1.1" viewBox="0 0 700 700" xmlns="http://www.w3.org/2000/svg" xmlns:xlink="http://www.w3.org/1999/xlink">
  <path d="m548.24 65.52h-29.68v-3.3594c0-25.199-20.719-45.922-45.922-45.922h-34.16c-25.199 0-45.922 20.719-45.922 45.922v3.3594h-85.113v-3.3594c0-25.199-20.719-45.922-45.922-45.922h-34.16c-25.199 0-45.922 20.719-45.922 45.922v3.3594h-30.238c-37.52 0-67.762 30.801-67.762 67.762l0.003906 342.72c0 37.52 30.238 67.762 67.762 67.762h396.48c37.52 0 67.762-30.238 67.762-67.762l-0.003906-342.72c0.55859-37.52-29.68-67.762-67.203-67.762zm-115.92-3.3594c0-3.3594 2.8008-6.1602 6.1602-6.1602h34.16c3.3594 0 6.1602 2.8008 6.1602 6.1602v48.16c0 3.3594-2.8008 6.1602-6.1602 6.1602h-34.16c-3.3594 0-6.1602-2.8008-6.1602-6.1602zm-211.12 0c0-3.3594 2.8008-6.1602 6.1602-6.1602h34.16c3.3594 0 6.1602 2.8008 6.1602 6.1602v48.16c0 3.3594-2.8008 6.1602-6.1602 6.1602h-34.16c-3.3594 0-6.1602-2.8008-6.1602-6.1602zm352.8 413.84c0 14-11.199 25.762-25.762 25.762h-396.48c-14 0-25.762-11.762-25.762-25.762v-262.64h448z"/>
  <path d="m193.2 334.88h50.961c9.5195 0 17.359-7.8398 17.359-17.359v-39.199c0-9.5195-7.8398-17.359-17.359-17.359h-50.961c-9.5195 0-17.359 7.8398-17.359 17.359v39.199c0.55859 9.5195 7.8398 17.359 17.359 17.359z"/>
  <path d="m455.84 334.88h50.961c9.5195 0 17.359-7.8398 17.359-17.359v-39.199c0-9.5195-7.8398-17.359-17.359-17.359h-50.961c-9.5195 0-17.359 7.8398-17.359 17.359v39.199c0 9.5195 7.8398 17.359 17.359 17.359z"/>
  <path d="m324.8 334.88h50.961c9.5195 0 17.359-7.8398 17.359-17.359v-39.199c0-9.5195-7.8398-17.359-17.359-17.359h-50.961c-9.5195 0-17.359 7.8398-17.359 17.359v39.199c0 9.5195 7.8398 17.359 17.359 17.359z"/>
  <path d="m193.2 455.28h50.961c9.5195 0 17.359-7.8398 17.359-17.359v-39.199c0-9.5195-7.8398-17.359-17.359-17.359l-50.961-0.003906c-9.5195 0-17.359 7.8398-17.359 17.359v39.199c0.55859 9.5234 7.8398 17.363 17.359 17.363z"/>
  <path d="m455.84 455.28h50.961c9.5195 0 17.359-7.8398 17.359-17.359v-39.199c0-9.5195-7.8398-17.359-17.359-17.359h-50.961c-9.5195 0-17.359 7.8398-17.359 17.359v39.199c0 9.5195 7.8398 17.359 17.359 17.359z"/>
  <path d="m324.8 455.28h50.961c9.5195 0 17.359-7.8398 17.359-17.359v-39.199c0-9.5195-7.8398-17.359-17.359-17.359h-50.961c-9.5195 0-17.359 7.8398-17.359 17.359v39.199c0 9.5195 7.8398 17.359 17.359 17.359z"/>
</svg>
