<svg fill="rgb(238, 241, 254)" version="1.1" viewBox="0 0 700 700" xmlns="http://www.w3.org/2000/svg">
  <path d="m244.9 513.33c-70.875 0-128.33-57.457-128.33-128.33s57.457-128.33 128.33-128.33c70.879 0 128.34 57.457 128.34 128.33s-57.457 128.33-128.34 128.33zm-23.23-81.664c12.887 0 23.332-10.449 23.332-23.336s-10.445-23.332-23.332-23.332-23.336 10.445-23.336 23.332 10.449 23.336 23.336 23.336z"/>
  <path d="m385 326.67c0 3.0938-1.2305 6.0586-3.4141 8.2461-10.137 10.137-10.137 10.137-19.125 19.121-6.25 6.25-16.91 3.5469-19.43-4.9258-8.0117-26.949-35.043-54.043-61.699-62.73-8.2773-2.6992-10.789-13.188-4.6328-19.344 58.008-58.004 130.24-130.32 216.71-216.95 2.1875-2.1914 5.1602-3.4219 8.2578-3.4219h70c6.4414 0 11.664 5.2227 11.664 11.664v70c0 3.0938-1.2266 6.0625-3.4141 8.25l-11.668 11.668c-2.1875 2.1875-5.1562 3.418-8.25 3.418h-35v35c0 3.0938-1.2305 6.0586-3.418 8.25l-11.664 11.664c-2.1914 2.1875-5.1562 3.418-8.25 3.418h-46.668v46.668c0 3.0938-1.2305 6.0586-3.418 8.25l-11.664 11.664c-2.1914 2.1875-5.1562 3.418-8.25 3.418h-46.668z"/>
</svg>
