<svg fill="rgb(238, 241, 254)" viewBox="0 0 700 700" xmlns="http://www.w3.org/2000/svg">
 <path d="m529.2 252h-358.4c-15.457 0-16.801 12.516-16.801 28s1.3438 28 16.801 28h358.4c15.457 0 16.801-12.516 16.801-28s-1.3438-28-16.801-28zm0 112h-358.4c-15.457 0-16.801 12.516-16.801 28s1.3438 28 16.801 28h358.4c15.457 0 16.801-12.516 16.801-28s-1.3438-28-16.801-28zm-358.4-168h358.4c15.457 0 16.801-12.516 16.801-28s-1.3438-28-16.801-28h-358.4c-15.457 0-16.801 12.516-16.801 28s1.3438 28 16.801 28z"/>
</svg>
