<svg fill="rgb(238, 241, 254)" version="1.1" viewBox="0 0 700 700" xmlns="http://www.w3.org/2000/svg">
  <path d="m351.09 518.55h-205.08c-19.578 0-32.375-12.25-32.703-31.719-0.21875-13.891-0.32812-27.672 0.21875-41.562 0.65625-16.406 8.6406-28.984 22.859-36.75 46.703-25.484 93.625-50.422 140.33-75.797 3.3906-1.8594 5.4688-0.10938 7.9844 1.2031 39.922 20.891 80.609 22.641 122.17 5.25 1.2031-0.4375 2.5156-0.76562 3.5-1.6406 8.6406-7.3281 16.406-4.375 25.375 0.54688 41.891 23.078 84.109 45.719 126.33 68.25 18.266 9.7344 27.234 24.391 26.906 45.062-0.21875 11.703 0 23.297 0 35-0.10938 19.359-13.016 32.156-32.266 32.156h-205.62z"/>
  <path d="m347.7 322.88c-38.5-1.3125-70.438-20.344-93.953-54.141-38.5-55.453-33.906-134.2 10.172-184.73 47.906-54.797 127.31-54.469 174.78 0.65625 50.422 58.625 47.25 151.16-7.3281 204.31-22.312 21.766-49 33.469-83.672 33.906z"/>
</svg>
