<svg fill="rgb(131, 133, 217)" viewBox="0 0 700 700" xmlns="http://www.w3.org/2000/svg">
  <path d="m350 35c61.25 0 110.86 49.613 110.86 110.86s-49.613 110.86-110.86 110.86-110.86-49.613-110.86-110.86 49.613-110.86 110.86-110.86zm0 490h3.0625c88.727-1.0508 167.12-44.711 215.77-111.56l-12.773-53.727c-4.1133-28.699-22.75-47.863-53.461-59.062l-79.977-23.012c-44.887 24.762-100.36 24.762-145.25 0l-79.977 23.012c-30.711 11.199-49.352 30.363-53.461 59.062l-12.773 53.727c48.648 66.852 127.05 110.6 215.77 111.56z"/>
</svg>
